<?xml version="1.0" encoding="UTF-8"?><svg id="Layer_1" xmlns="http://www.w3.org/2000/svg" xmlns:xlink="http://www.w3.org/1999/xlink" viewBox="0 0 510.24 315.9"><defs><style>.cls-1{letter-spacing:.01em;}.cls-2{letter-spacing:-.04em;}.cls-3{letter-spacing:.01em;}.cls-4{letter-spacing:0em;}.cls-5{letter-spacing:.01em;}.cls-6{letter-spacing:.02em;}.cls-7{letter-spacing:.02em;}.cls-8{clip-path:url(#clippath);}.cls-9{letter-spacing:.02em;}.cls-10{letter-spacing:0em;}.cls-11{letter-spacing:0em;}.cls-12,.cls-13,.cls-14,.cls-15,.cls-16{stroke-width:0px;}.cls-12,.cls-17{fill:none;}.cls-18{letter-spacing:.01em;}.cls-19{letter-spacing:.01em;}.cls-20{letter-spacing:.01em;}.cls-13,.cls-21{fill:#c7cab4;}.cls-22{letter-spacing:0em;}.cls-23{letter-spacing:.03em;}.cls-24{letter-spacing:.02em;}.cls-25{letter-spacing:0em;}.cls-26{letter-spacing:0em;}.cls-27{letter-spacing:0em;}.cls-28{letter-spacing:0em;}.cls-29{letter-spacing:.01em;}.cls-30{letter-spacing:.02em;}.cls-14{fill:url(#linear-gradient);}.cls-15,.cls-31{fill:#6eb4a6;}.cls-32{letter-spacing:.03em;}.cls-33{letter-spacing:.06em;}.cls-34{letter-spacing:0em;}.cls-35{letter-spacing:.01em;}.cls-36{letter-spacing:.01em;}.cls-37{letter-spacing:.02em;}.cls-38{letter-spacing:-.01em;}.cls-39{letter-spacing:.02em;}.cls-40,.cls-41,.cls-42,.cls-43,.cls-31,.cls-21{font-family:Avenir-Black, Avenir;font-weight:800;}.cls-40,.cls-41,.cls-42,.cls-44,.cls-31,.cls-21{font-size:9.87px;}.cls-40,.cls-16{fill:#88cdd3;}.cls-45{letter-spacing:0em;}.cls-46{letter-spacing:.04em;}.cls-47{letter-spacing:.02em;}.cls-41{fill:#8bbad3;}.cls-48{letter-spacing:.04em;}.cls-49{letter-spacing:.04em;}.cls-50{letter-spacing:.02em;}.cls-51{letter-spacing:.02em;}.cls-52{letter-spacing:.02em;}.cls-53{letter-spacing:.02em;}.cls-54{letter-spacing:0em;}.cls-55{letter-spacing:-.02em;}.cls-56{letter-spacing:0em;}.cls-57{letter-spacing:.01em;}.cls-42,.cls-43,.cls-44,.cls-58{fill:#000;}.cls-59{letter-spacing:0em;}.cls-43{font-size:9.42px;}.cls-60{letter-spacing:0em;}.cls-61{letter-spacing:.01em;}.cls-62{clip-path:url(#clippath-15);}.cls-63{letter-spacing:.03em;}.cls-64{letter-spacing:.03em;}.cls-44,.cls-58{font-family:Avenir-Medium, Avenir;font-weight:500;}.cls-65{letter-spacing:.02em;}.cls-66{letter-spacing:-.03em;}.cls-67{letter-spacing:.02em;}.cls-68{letter-spacing:.02em;}.cls-69{letter-spacing:-.03em;}.cls-70{letter-spacing:.02em;}.cls-71{letter-spacing:0em;}.cls-72{letter-spacing:0em;}.cls-73{letter-spacing:0em;}.cls-74{letter-spacing:-.02em;}.cls-58{font-size:7.9px;}.cls-75{letter-spacing:.02em;}.cls-76{letter-spacing:.04em;}.cls-77{letter-spacing:.02em;}.cls-78{letter-spacing:0em;}.cls-79{letter-spacing:.02em;}.cls-80{letter-spacing:.02em;}.cls-81{letter-spacing:0em;}.cls-82{letter-spacing:0em;}.cls-83{letter-spacing:0em;}.cls-84{letter-spacing:.01em;}.cls-85{letter-spacing:0em;}.cls-86{letter-spacing:0em;}.cls-87{letter-spacing:0em;}.cls-88{letter-spacing:0em;}.cls-89{letter-spacing:.02em;}.cls-17{stroke:#000;stroke-miterlimit:10;stroke-width:.99px;}.cls-90{letter-spacing:.02em;}.cls-91{letter-spacing:.01em;}.cls-92{letter-spacing:-.05em;}.cls-93{letter-spacing:0em;}.cls-94{letter-spacing:0em;}.cls-95{letter-spacing:.02em;}.cls-96{letter-spacing:.01em;}.cls-97{letter-spacing:.01em;}.cls-98{letter-spacing:.01em;}.cls-99{letter-spacing:.03em;}.cls-100{letter-spacing:.03em;}.cls-101{letter-spacing:0em;}.cls-102{letter-spacing:.01em;}.cls-103{letter-spacing:0em;}.cls-104{letter-spacing:0em;}.cls-105{letter-spacing:0em;}.cls-106{letter-spacing:0em;}.cls-107{letter-spacing:.01em;}.cls-108{letter-spacing:.01em;}.cls-109{letter-spacing:.01em;}.cls-110{letter-spacing:-.03em;}.cls-111{letter-spacing:.01em;}.cls-112{letter-spacing:0em;}.cls-113{letter-spacing:.04em;}.cls-114{letter-spacing:0em;}.cls-115{letter-spacing:.02em;}.cls-116{letter-spacing:.01em;}.cls-117{letter-spacing:0em;}.cls-118{letter-spacing:0em;}.cls-119{letter-spacing:.04em;}.cls-120{letter-spacing:0em;}</style><clipPath id="clippath"><rect class="cls-12" x="-50.55" y="-1136.61" width="595.28" height="1729.13"/></clipPath><clipPath id="clippath-15"><rect class="cls-12" x="23.78" y="198.68" width="486.46" height="44.2"/></clipPath><linearGradient id="linear-gradient" x1="-50.55" y1="592.52" x2="-49.55" y2="592.52" gradientTransform="translate(24614.69 288454.65) scale(486.46 -486.46)" gradientUnits="userSpaceOnUse"><stop offset="0" stop-color="#8bbad3"/><stop offset=".44" stop-color="#8cbad3"/><stop offset=".62" stop-color="#93bdd3"/><stop offset=".74" stop-color="#a0c2d5"/><stop offset=".85" stop-color="#b1cad7"/><stop offset=".94" stop-color="#c7d3d9"/><stop offset="1" stop-color="#dddddc"/></linearGradient></defs><g class="cls-8"><line class="cls-17" x1="25.58" y1="251.54" x2="25.58" y2="276.79"/><line class="cls-17" x1="40.39" y1="251.54" x2="40.39" y2="262.31"/><line class="cls-17" x1="55.2" y1="251.54" x2="55.2" y2="262.31"/><line class="cls-17" x1="70.01" y1="251.54" x2="70.01" y2="262.31"/><line class="cls-17" x1="84.82" y1="251.54" x2="84.82" y2="262.31"/><line class="cls-17" x1="99.63" y1="251.54" x2="99.63" y2="262.31"/><line class="cls-17" x1="114.44" y1="251.54" x2="114.44" y2="276.79"/><line class="cls-17" x1="129.25" y1="251.54" x2="129.25" y2="262.31"/><line class="cls-17" x1="144.06" y1="251.54" x2="144.06" y2="262.31"/><line class="cls-17" x1="158.87" y1="251.54" x2="158.87" y2="262.31"/><line class="cls-17" x1="173.68" y1="251.54" x2="173.68" y2="262.31"/><line class="cls-17" x1="188.49" y1="251.54" x2="188.49" y2="276.79"/><line class="cls-17" x1="203.3" y1="251.54" x2="203.3" y2="262.31"/><line class="cls-17" x1="218.11" y1="251.54" x2="218.11" y2="262.31"/><line class="cls-17" x1="232.92" y1="251.54" x2="232.92" y2="262.31"/><line class="cls-17" x1="247.73" y1="251.54" x2="247.73" y2="262.31"/><line class="cls-17" x1="262.54" y1="251.54" x2="262.54" y2="276.79"/><line class="cls-17" x1="277.35" y1="251.54" x2="277.35" y2="262.31"/><line class="cls-17" x1="292.16" y1="251.54" x2="292.16" y2="262.31"/><line class="cls-17" x1="306.97" y1="251.54" x2="306.97" y2="262.31"/><line class="cls-17" x1="321.78" y1="251.54" x2="321.78" y2="262.31"/><line class="cls-17" x1="336.59" y1="251.54" x2="336.59" y2="276.79"/><line class="cls-17" x1="351.4" y1="251.54" x2="351.4" y2="262.31"/><line class="cls-17" x1="366.21" y1="251.54" x2="366.21" y2="262.31"/><line class="cls-17" x1="381.02" y1="251.54" x2="381.02" y2="262.31"/><line class="cls-17" x1="395.83" y1="251.54" x2="395.83" y2="262.31"/><line class="cls-17" x1="410.64" y1="251.54" x2="410.64" y2="276.79"/><line class="cls-17" x1="425.45" y1="251.54" x2="425.45" y2="262.31"/><line class="cls-17" x1="440.26" y1="251.54" x2="440.26" y2="262.31"/><line class="cls-17" x1="455.07" y1="251.54" x2="455.07" y2="262.31"/><text class="cls-43" transform="translate(13.94 289.19)"><tspan x="0" y="0">1994</tspan></text><text class="cls-43" transform="translate(102.89 289.19)"><tspan x="0" y="0">2000</tspan></text><text class="cls-43" transform="translate(176.63 289.19)"><tspan x="0" y="0">2005</tspan></text><text class="cls-43" transform="translate(250.92 289.19)"><tspan x="0" y="0">2010</tspan></text><text class="cls-43" transform="translate(327.05 289.19)"><tspan x="0" y="0">2015</tspan></text><text class="cls-43" transform="translate(399.14 289.19)"><tspan x="0" y="0">2020</tspan></text><text class="cls-41" transform="translate(32.79 194.25)"><tspan x="0" y="0">1994-2024…</tspan></text><g class="cls-62"><rect class="cls-14" x="23.78" y="198.68" width="486.46" height="44.2"/></g><text class="cls-42" transform="translate(32.79 209.93)"><tspan x="0" y="0">•</tspan></text><text class="cls-42" transform="translate(41.18 209.93)"><tspan class="cls-50" x="0" y="0">C</tspan><tspan class="cls-79" x="6.97" y="0">a</tspan><tspan class="cls-5" x="12.42" y="0">pi</tspan><tspan class="cls-77" x="21.44" y="0">t</tspan><tspan class="cls-6" x="25.63" y="0">a</tspan><tspan x="31.15" y="0">l </tspan><tspan class="cls-104" x="36.64" y="0">g</tspan><tspan class="cls-25" x="42.92" y="0">o</tspan><tspan class="cls-71" x="49.02" y="0">od</tspan><tspan class="cls-45" x="61.46" y="0">s </tspan><tspan class="cls-96" x="68.95" y="0">I</tspan><tspan class="cls-19" x="72.01" y="0">n</tspan><tspan class="cls-79" x="77.78" y="0">f</tspan><tspan class="cls-88" x="81.58" y="0">r</tspan><tspan class="cls-67" x="85.66" y="0">a</tspan><tspan class="cls-52" x="91.13" y="0">s</tspan><tspan class="cls-64" x="95.88" y="0">t</tspan><tspan class="cls-71" x="100.16" y="0">r</tspan><tspan class="cls-29" x="104.27" y="0">u</tspan><tspan class="cls-119" x="110.05" y="0">c</tspan><tspan class="cls-50" x="115.18" y="0">t</tspan><tspan class="cls-52" x="119.41" y="0">u</tspan><tspan class="cls-82" x="125.25" y="0">r</tspan><tspan x="129.35" y="0">e</tspan></text><text class="cls-44" transform="translate(176.28 209.93)"><tspan x="0" y="0"> </tspan><tspan class="cls-82" x="2.74" y="0">i</tspan><tspan x="5.2" y="0">n </tspan><tspan class="cls-74" x="13.43" y="0">P</tspan><tspan class="cls-54" x="19.13" y="0">o</tspan><tspan class="cls-26" x="24.98" y="0">w</tspan><tspan class="cls-109" x="32.51" y="0">e</tspan><tspan x="38.13" y="0">r &amp; </tspan><tspan class="cls-118" x="54.39" y="0">E</tspan><tspan class="cls-19" x="60.47" y="0">n</tspan><tspan class="cls-109" x="66.07" y="0">e</tspan><tspan class="cls-22" x="71.68" y="0">r</tspan><tspan class="cls-108" x="75.34" y="0">g</tspan><tspan class="cls-92" x="81.5" y="0">y</tspan><tspan x="85.93" y="0">, </tspan><tspan class="cls-86" x="91.42" y="0">A</tspan><tspan class="cls-61" x="98.39" y="0">g</tspan><tspan class="cls-83" x="104.54" y="0">r</tspan><tspan class="cls-112" x="108.17" y="0">o</tspan><tspan class="cls-73" x="114.08" y="0">in</tspan><tspan class="cls-19" x="122.11" y="0">d</tspan><tspan class="cls-61" x="128.25" y="0">u</tspan><tspan class="cls-63" x="133.86" y="0">s</tspan><tspan class="cls-85" x="138.5" y="0">t</tspan><tspan class="cls-23" x="142.15" y="0">r</tspan><tspan class="cls-22" x="146.11" y="0">y &amp; </tspan><tspan class="cls-114" x="163.66" y="0">F</tspan><tspan class="cls-108" x="169.35" y="0">e</tspan><tspan class="cls-113" x="174.96" y="0">r</tspan><tspan class="cls-105" x="179" y="0">t</tspan><tspan class="cls-120" x="182.6" y="0">il</tspan><tspan x="187.44" y="0">i</tspan><tspan class="cls-10" x="189.81" y="0">z</tspan><tspan class="cls-107" x="194.35" y="0">er</tspan><tspan x="203.74" y="0">s</tspan></text><text class="cls-42" transform="translate(32.78 223.75)"><tspan x="0" y="0">•</tspan></text><text class="cls-42" transform="translate(41.17 223.75)"><tspan class="cls-69" x="0" y="0">1</tspan><tspan x="5.58" y="0">0 </tspan><tspan class="cls-19" x="14.34" y="0">t</tspan><tspan class="cls-4" x="18.47" y="0">o </tspan><tspan class="cls-66" x="27.41" y="0">1</tspan><tspan class="cls-9" x="32.98" y="0">0</tspan><tspan class="cls-4" x="39.04" y="0">0 </tspan><tspan class="cls-25" x="47.81" y="0">M</tspan><tspan class="cls-4" x="57.21" y="0">€ </tspan><tspan class="cls-51" x="65.97" y="0">B</tspan><tspan class="cls-24" x="72.57" y="0">u</tspan><tspan class="cls-84" x="78.4" y="0">s</tspan><tspan class="cls-75" x="83.11" y="0">i</tspan><tspan class="cls-82" x="85.85" y="0">n</tspan><tspan class="cls-59" x="91.6" y="0">e</tspan><tspan class="cls-71" x="97.33" y="0">s</tspan><tspan class="cls-82" x="102" y="0">s</tspan><tspan class="cls-88" x="106.65" y="0">e</tspan><tspan x="112.38" y="0">s</tspan></text><text class="cls-44" transform="translate(158.18 223.75)"><tspan x="0" y="0"> </tspan><tspan class="cls-82" x="2.74" y="0">5</tspan><tspan x="8.32" y="0">0 </tspan><tspan class="cls-106" x="16.55" y="0">t</tspan><tspan x="20.1" y="0">o </tspan><tspan class="cls-82" x="28.71" y="0">5</tspan><tspan class="cls-119" x="34.29" y="0">0</tspan><tspan x="40.15" y="0">0 + </tspan><tspan class="cls-100" x="57.7" y="0">A</tspan><tspan class="cls-84" x="64.92" y="0">s</tspan><tspan class="cls-27" x="69.45" y="0">s</tspan><tspan class="cls-25" x="73.91" y="0">o</tspan><tspan class="cls-1" x="79.85" y="0">c</tspan><tspan class="cls-117" x="84.72" y="0">i</tspan><tspan class="cls-47" x="87.1" y="0">a</tspan><tspan class="cls-11" x="92.4" y="0">t</tspan><tspan class="cls-35" x="96" y="0">e</tspan><tspan x="101.59" y="0">s</tspan></text><text class="cls-42" transform="translate(32.78 237.57)"><tspan x="0" y="0">•</tspan></text><text class="cls-42" transform="translate(41.17 237.57)"><tspan class="cls-110" x="0" y="0">1</tspan><tspan class="cls-38" x="5.5" y="0">5</tspan><tspan x="11.22" y="0">+ </tspan><tspan class="cls-28" x="20.72" y="0">y</tspan><tspan class="cls-104" x="26.12" y="0">e</tspan><tspan class="cls-9" x="31.85" y="0">a</tspan><tspan class="cls-52" x="37.37" y="0">r</tspan><tspan x="41.56" y="0">s </tspan><tspan class="cls-66" x="49.05" y="0">P</tspan><tspan x="55" y="0">&amp;L </tspan><tspan class="cls-82" x="70.72" y="0">M</tspan><tspan class="cls-6" x="80.12" y="0">a</tspan><tspan class="cls-5" x="85.64" y="0">n</tspan><tspan class="cls-68" x="91.42" y="0">a</tspan><tspan class="cls-88" x="96.89" y="0">g</tspan><tspan class="cls-96" x="103.17" y="0">e</tspan><tspan class="cls-71" x="108.97" y="0">m</tspan><tspan class="cls-102" x="117.66" y="0">e</tspan><tspan class="cls-36" x="123.46" y="0">n</tspan><tspan x="129.23" y="0">t</tspan></text><rect class="cls-15" x="232.92" y="170.05" width="239.5" height="17.96"/><rect class="cls-16" x="287.48" y="116.14" width="126.76" height="43.93"/><rect class="cls-13" x="414.24" y="34.56" width="63.02" height="73.73"/><text class="cls-31" transform="translate(206.62 164.3)"><tspan x="0" y="0">2008-2024</tspan></text><text class="cls-40" transform="translate(267.34 108.17)"><tspan x="0" y="0">2012-2020</tspan></text><text class="cls-21" transform="translate(391.72 27.72)"><tspan x="0" y="0">2020-2024</tspan></text><text class="cls-44" transform="translate(239.17 182.58)"><tspan class="cls-2" x="0" y="0">1</tspan><tspan class="cls-81" x="5.1" y="0">5</tspan><tspan x="10.52" y="0">+ </tspan><tspan class="cls-10" x="19.84" y="0">y</tspan><tspan class="cls-59" x="24.74" y="0">e</tspan><tspan class="cls-107" x="30.29" y="0">a</tspan><tspan class="cls-61" x="35.54" y="0">r</tspan><tspan x="39.31" y="0">s </tspan><tspan class="cls-55" x="46.44" y="0">P</tspan><tspan class="cls-87" x="52.11" y="0">&amp;</tspan><tspan x="59.29" y="0">L </tspan><tspan class="cls-101" x="67.15" y="0">M</tspan><tspan class="cls-107" x="76.18" y="0">a</tspan><tspan class="cls-59" x="81.43" y="0">n</tspan><tspan class="cls-18" x="86.97" y="0">a</tspan><tspan class="cls-107" x="92.2" y="0">ge</tspan><tspan class="cls-19" x="103.98" y="0">m</tspan><tspan class="cls-107" x="112.5" y="0">en</tspan><tspan class="cls-22" x="123.73" y="0">t</tspan></text><text class="cls-42" transform="translate(294.76 129.78)"><tspan class="cls-79" x="0" y="0">G</tspan><tspan class="cls-108" x="7.83" y="0">l</tspan><tspan class="cls-59" x="10.52" y="0">o</tspan><tspan class="cls-25" x="16.6" y="0">b</tspan><tspan class="cls-30" x="22.9" y="0">a</tspan><tspan x="28.42" y="0" xml:space="preserve">l  </tspan><tspan class="cls-10" x="36.82" y="0">C</tspan><tspan class="cls-78" x="43.56" y="0">E</tspan><tspan x="49.76" y="0">O </tspan><tspan class="cls-35" x="60.9" y="0">r</tspan><tspan class="cls-108" x="65.01" y="0">o</tspan><tspan class="cls-1" x="71.16" y="0">l</tspan><tspan x="73.85" y="0">e </tspan></text><text class="cls-58" transform="translate(294.77 140.63)"><tspan class="cls-99" x="0" y="0">A</tspan><tspan class="cls-37" x="5.78" y="0">m</tspan><tspan class="cls-90" x="12.67" y="0">e</tspan><tspan class="cls-57" x="17.25" y="0">r</tspan><tspan class="cls-80" x="20.25" y="0">i</tspan><tspan class="cls-32" x="22.27" y="0">c</tspan><tspan class="cls-9" x="26.32" y="0">a</tspan><tspan class="cls-94" x="30.59" y="0">n – </tspan><tspan class="cls-120" x="43.32" y="0">E</tspan><tspan class="cls-50" x="48.18" y="0">u</tspan><tspan class="cls-93" x="52.74" y="0">r</tspan><tspan class="cls-53" x="55.71" y="0">o</tspan><tspan class="cls-39" x="60.55" y="0">p</tspan><tspan class="cls-91" x="65.53" y="0">e</tspan><tspan class="cls-9" x="70.04" y="0">a</tspan><tspan x="74.31" y="0">n</tspan></text><text class="cls-58" transform="translate(294.77 151.49)"><tspan class="cls-49" x="0" y="0">A</tspan><tspan class="cls-91" x="5.85" y="0">s</tspan><tspan class="cls-20" x="9.47" y="0">i</tspan><tspan class="cls-90" x="11.46" y="0">a</tspan><tspan x="15.74" y="0">n </tspan><tspan class="cls-75" x="22.32" y="0">M</tspan><tspan class="cls-95" x="29.61" y="0">a</tspan><tspan class="cls-98" x="33.89" y="0">r</tspan><tspan class="cls-56" x="36.93" y="0">k</tspan><tspan class="cls-7" x="40.97" y="0">et</tspan><tspan class="cls-94" x="48.68" y="0" xml:space="preserve">s  </tspan></text><text class="cls-42" transform="translate(421.13 45.75)"><tspan x="0" y="0">M</tspan><tspan class="cls-48" x="9.32" y="0">&amp;</tspan><tspan x="17.17" y="0">A </tspan></text><text class="cls-42" transform="translate(421.13 56.61)"><tspan class="cls-96" x="0" y="0">a</tspan><tspan class="cls-119" x="5.44" y="0">c</tspan><tspan class="cls-89" x="10.57" y="0">t</tspan><tspan class="cls-108" x="14.81" y="0">i</tspan><tspan class="cls-96" x="17.51" y="0">v</tspan><tspan class="cls-1" x="23.13" y="0">i</tspan><tspan class="cls-89" x="25.82" y="0">t</tspan><tspan class="cls-25" x="30.06" y="0">i</tspan><tspan class="cls-59" x="32.71" y="0">e</tspan><tspan x="38.43" y="0">s</tspan></text><text class="cls-58" transform="translate(421.13 67.47)"><tspan class="cls-70" x="0" y="0">P</tspan><tspan class="cls-72" x="4.82" y="0">r</tspan><tspan class="cls-39" x="7.82" y="0">e</tspan><tspan class="cls-9" x="12.37" y="0">c</tspan><tspan class="cls-75" x="16.34" y="0">i</tspan><tspan class="cls-91" x="18.37" y="0">s</tspan><tspan class="cls-116" x="22" y="0">i</tspan><tspan class="cls-115" x="24" y="0">o</tspan><tspan class="cls-94" x="28.84" y="0">n</tspan></text><text class="cls-58" transform="translate(421.13 78.32)"><tspan class="cls-50" x="0" y="0">me</tspan><tspan class="cls-7" x="11.45" y="0">c</tspan><tspan class="cls-91" x="15.45" y="0">h</tspan><tspan class="cls-9" x="19.96" y="0">a</tspan><tspan class="cls-91" x="24.23" y="0">n</tspan><tspan class="cls-65" x="28.74" y="0">i</tspan><tspan class="cls-46" x="30.76" y="0">c</tspan><tspan class="cls-72" x="34.9" y="0">s</tspan><tspan x="38.48" y="0">,</tspan></text><text class="cls-58" transform="translate(421.13 89.18)"><tspan class="cls-50" x="0" y="0">B</tspan><tspan class="cls-53" x="5.14" y="0">u</tspan><tspan class="cls-97" x="9.68" y="0">i</tspan><tspan class="cls-115" x="11.69" y="0">ldin</tspan><tspan class="cls-103" x="25.29" y="0">g &amp;</tspan></text><text class="cls-58" transform="translate(421.13 100.04)"><tspan class="cls-3" x="0" y="0">c</tspan><tspan class="cls-39" x="3.9" y="0">on</tspan><tspan class="cls-76" x="13.3" y="0">s</tspan><tspan class="cls-60" x="17.08" y="0">t</tspan><tspan class="cls-91" x="20.06" y="0">r</tspan><tspan class="cls-37" x="23.1" y="0">u</tspan><tspan class="cls-33" x="27.65" y="0">c</tspan><tspan class="cls-34" x="31.91" y="0">t</tspan><tspan class="cls-111" x="34.86" y="0">i</tspan><tspan class="cls-53" x="36.86" y="0">o</tspan><tspan class="cls-94" x="41.7" y="0">n</tspan></text></g></svg>