<?xml version="1.0" encoding="UTF-8"?>
<svg id="Layer_2" data-name="Layer 2" xmlns="http://www.w3.org/2000/svg" version="1.1" viewBox="0 0 598.7 501">
  <defs>
    <style>
      .cls-1 {
        fill: #b2b2b2;
      }

      .cls-1, .cls-2 {
        stroke-width: 0px;
      }

      .cls-2 {
        fill: #fff;
      }
    </style>
  </defs>
  <g id="Components">
    <g id="_85e7917b-6bea-4e20-b8f7-f5836792d698_1" data-name=" 85e7917b-6bea-4e20-b8f7-f5836792d698 1">
      <circle class="cls-1" cx="361.6" cy="303.2" r="5.2"/>
      <circle class="cls-1" cx="236.5" cy="198.2" r="5.2"/>
      <circle class="cls-1" cx="336.8" cy="323.2" r="5.2"/>
      <circle class="cls-1" cx="261.4" cy="178.3" r="5.2"/>
      <circle class="cls-1" cx="306.2" cy="332.1" r="5.2"/>
      <circle class="cls-1" cx="292" cy="169.4" r="5.2"/>
      <circle class="cls-1" cx="274.5" cy="328.6" r="5.2"/>
      <circle class="cls-1" cx="323.6" cy="172.8" r="5.2"/>
      <circle class="cls-1" cx="246.6" cy="313.3" r="5.2"/>
      <circle class="cls-1" cx="351.6" cy="188.2" r="5.2"/>
      <circle class="cls-1" cx="236.5" cy="198.2" r="5.2"/>
      <circle class="cls-1" cx="361.6" cy="303.2" r="5.2"/>
      <circle class="cls-1" cx="360.1" cy="323.5" r="6"/>
      <circle class="cls-1" cx="238" cy="178" r="6"/>
      <circle class="cls-1" cx="327.6" cy="341.3" r="6"/>
      <circle class="cls-1" cx="270.5" cy="160.1" r="6"/>
      <circle class="cls-1" cx="290.8" cy="345.3" r="6"/>
      <circle class="cls-1" cx="307.4" cy="156.1" r="6"/>
      <circle class="cls-1" cx="255.2" cy="334.9" r="6" transform="translate(-116.3 533.2) rotate(-80.8)"/>
      <circle class="cls-1" cx="342.9" cy="166.5" r="6"/>
      <circle class="cls-1" cx="226.3" cy="311.8" r="6"/>
      <circle class="cls-1" cx="371.8" cy="189.7" r="6"/>
      <circle class="cls-1" cx="238" cy="178" r="6"/>
      <circle class="cls-1" cx="360.1" cy="323.5" r="6"/>
      <circle class="cls-1" cx="354.3" cy="346.3" r="7"/>
      <circle class="cls-1" cx="243.9" cy="155.1" r="7"/>
      <circle class="cls-1" cx="313.5" cy="360.2" r="7"/>
      <circle class="cls-1" cx="284.7" cy="141.2" r="7"/>
      <circle class="cls-1" cx="270.5" cy="357.4" r="7"/>
      <circle class="cls-1" cx="327.7" cy="144.1" r="7"/>
      <circle class="cls-1" cx="231.9" cy="338.3" r="7"/>
      <circle class="cls-1" cx="366.3" cy="163.1" r="7"/>
      <circle class="cls-1" cx="203.5" cy="305.9" r="7"/>
      <circle class="cls-1" cx="394.7" cy="195.5" r="7"/>
      <circle class="cls-1" cx="211.5" cy="183.5" r="7"/>
      <circle class="cls-1" cx="386.7" cy="317.9" r="7"/>
      <circle class="cls-1" cx="243.9" cy="155.1" r="7"/>
      <circle class="cls-1" cx="354.3" cy="346.3" r="7"/>
      <circle class="cls-1" cx="343" cy="371.4" r="8.1"/>
      <circle class="cls-1" cx="255.2" cy="130.1" r="8.1" transform="translate(85.9 361.1) rotate(-80.8)"/>
      <circle class="cls-1" cx="293.5" cy="379" r="8.1"/>
      <circle class="cls-1" cx="304.7" cy="122.4" r="8.1"/>
      <circle class="cls-1" cx="244.8" cy="367.1" r="8.1"/>
      <circle class="cls-1" cx="353.3" cy="134.3" r="8.1"/>
      <circle class="cls-1" cx="204.4" cy="337.5" r="8.1"/>
      <circle class="cls-1" cx="393.7" cy="164" r="8.1"/>
      <circle class="cls-1" cx="182.7" cy="196.5" r="8.1"/>
      <circle class="cls-1" cx="415.5" cy="305" r="8.1"/>
      <circle class="cls-1" cx="212.3" cy="156.1" r="8.1"/>
      <circle class="cls-1" cx="385.8" cy="345.4" r="8.1"/>
      <circle class="cls-1" cx="255.2" cy="130.1" r="8.1" transform="translate(85.9 361.1) rotate(-80.8)"/>
      <circle class="cls-1" cx="343" cy="371.4" r="8.1"/>
      <circle class="cls-1" cx="325" cy="397.7" r="9.5"/>
      <circle class="cls-1" cx="273.2" cy="103.7" r="9.5"/>
      <circle class="cls-1" cx="266.8" cy="396.5" r="9.5"/>
      <circle class="cls-1" cx="331.4" cy="105" r="9.5"/>
      <circle class="cls-1" cx="213.4" cy="373" r="9.5"/>
      <circle class="cls-1" cx="384.7" cy="128.4" r="9.5"/>
      <circle class="cls-1" cx="173.2" cy="330.9" r="9.5"/>
      <circle class="cls-1" cx="425" cy="170.5" r="9.5"/>
      <circle class="cls-1" cx="176.8" cy="165.1" r="9.5"/>
      <circle class="cls-1" cx="421.4" cy="336.4" r="9.5"/>
      <circle class="cls-1" cx="218.9" cy="124.8" r="9.5"/>
      <circle class="cls-1" cx="379.3" cy="376.6" r="9.5"/>
      <circle class="cls-1" cx="273.2" cy="103.7" r="9.5"/>
      <circle class="cls-1" cx="325" cy="397.7" r="9.5"/>
      <circle class="cls-1" cx="299.1" cy="424.3" r="11"/>
      <path class="cls-1" d="M288.1,77.1c0-6.1,4.9-11,11-11s11,4.9,11,11-4.9,11-11,11-11-4.9-11-11Z"/>
      <circle class="cls-1" cx="232.6" cy="411.1" r="11"/>
      <circle class="cls-1" cx="365.5" cy="90.3" r="11"/>
      <circle class="cls-1" cx="176.3" cy="373.5" r="11"/>
      <circle class="cls-1" cx="421.8" cy="128" r="11"/>
      <circle class="cls-1" cx="138.7" cy="317.2" r="11"/>
      <circle class="cls-1" cx="459.5" cy="184.3" r="11"/>
      <circle class="cls-1" cx="138.7" cy="184.3" r="11"/>
      <circle class="cls-1" cx="459.5" cy="317.2" r="11"/>
      <circle class="cls-1" cx="176.3" cy="128" r="11"/>
      <circle class="cls-1" cx="421.8" cy="373.5" r="11"/>
      <circle class="cls-1" cx="232.6" cy="90.3" r="11"/>
      <circle class="cls-1" cx="365.5" cy="411.1" r="11"/>
      <circle class="cls-1" cx="299.1" cy="77.1" r="11"/>
      <circle class="cls-1" cx="299.1" cy="424.3" r="11"/>
      <path class="cls-2" d="M114.1,280.8c-4,1.8-8.7,2.8-14,2.8s-9.3-.8-13.3-2.4c-4.1-1.6-7.6-3.8-10.6-6.7-3-2.9-5.3-6.4-7-10.4-1.7-4.1-2.6-8.5-2.6-13.4s.9-9.5,2.6-13.6c1.7-4.1,4.1-7.5,7.2-10.3,3.1-2.8,6.6-5,10.7-6.6,4.1-1.5,8.5-2.3,13.3-2.3s8.7.8,13,2.3c4.3,1.6,7.7,3.8,10.3,6.8l-10.2,10.2c-1.4-1.9-3.3-3.4-5.5-4.3-2.3-.9-4.6-1.4-7-1.4s-5.1.5-7.3,1.5c-2.2,1-4.1,2.3-5.7,4-1.6,1.7-2.8,3.7-3.7,6-.9,2.3-1.3,4.9-1.3,7.6s.4,5.4,1.3,7.7c.9,2.3,2.1,4.4,3.7,6,1.6,1.7,3.4,3,5.6,3.9,2.2.9,4.5,1.4,7.1,1.4s5.6-.6,7.8-1.8c2.2-1.2,4-2.7,5.4-4.6l10.5,9.9c-2.8,3.2-6.2,5.7-10.2,7.5h0Z"/>
      <path class="cls-2" d="M130.7,281.9v-62.3h41.9v12.7h-27.4v11.8h25.9v12.1h-25.9v12.9h29v12.9h-43.5,0Z"/>
      <path class="cls-2" d="M217.6,281.9l-13.5-24.7h-5.1v24.7h-14.7v-62.3h23.8c3,0,5.9.3,8.8.9,2.8.6,5.4,1.7,7.7,3.1,2.3,1.5,4.1,3.4,5.4,5.8,1.3,2.4,2,5.4,2,9s-1.1,7.8-3.4,10.7c-2.3,2.9-5.5,4.9-9.5,6.2l16.3,26.7h-17.6,0ZM216.9,238.7c0-1.5-.3-2.7-.9-3.6-.6-.9-1.4-1.6-2.4-2.1-1-.5-2.1-.8-3.3-1-1.2-.2-2.4-.3-3.5-.3h-8v14.5h7.2c1.2,0,2.5-.1,3.8-.3,1.3-.2,2.5-.6,3.5-1.1,1.1-.5,1.9-1.3,2.6-2.3.7-1,1-2.3,1-3.9h0Z"/>
      <path class="cls-2" d="M242.6,281.9v-62.3h41.9v12.7h-27.4v11.8h25.9v12.1h-25.9v12.9h29v12.9h-43.5,0Z"/>
      <path class="cls-2" d="M328.9,235.7c-1.3-1.6-3-2.9-5.1-3.9s-4.1-1.5-6-1.5-2,0-3,.3c-1,.2-2,.5-2.8,1-.8.5-1.5,1.1-2.1,1.9-.6.8-.8,1.8-.8,3s.2,1.9.7,2.6c.4.7,1.1,1.3,1.9,1.8.8.5,1.9,1,3,1.5,1.2.4,2.5.9,4,1.4,2.1.7,4.3,1.5,6.6,2.3,2.3.9,4.4,2,6.3,3.4,1.9,1.4,3.4,3.2,4.7,5.2,1.2,2.1,1.8,4.7,1.8,7.8s-.7,6.7-2,9.3c-1.3,2.6-3.1,4.8-5.3,6.5-2.2,1.7-4.8,3-7.7,3.8-2.9.8-5.8,1.2-8.9,1.2-4.5,0-8.8-.8-12.9-2.3-4.2-1.6-7.6-3.8-10.4-6.6l9.9-10c1.5,1.9,3.5,3.4,6,4.7,2.5,1.3,5,1.9,7.4,1.9s2.2-.1,3.3-.4c1.1-.2,2-.6,2.8-1.1.8-.5,1.4-1.2,1.9-2.1.5-.9.7-1.9.7-3.2s-.3-2.2-.9-3c-.6-.8-1.4-1.6-2.5-2.2-1.1-.7-2.4-1.3-4-1.8-1.6-.6-3.4-1.2-5.5-1.8-2-.6-3.9-1.4-5.9-2.3-1.9-.9-3.6-2-5.1-3.4-1.5-1.4-2.7-3.1-3.6-5-.9-2-1.4-4.4-1.4-7.2s.7-6.4,2.1-8.9c1.4-2.5,3.3-4.5,5.5-6.1,2.3-1.6,4.9-2.7,7.7-3.5,2.9-.7,5.8-1.1,8.7-1.1s7.1.6,10.8,1.9c3.7,1.3,6.9,3.2,9.6,5.7l-9.6,10.1h0Z"/>
      <path class="cls-2" d="M392.7,280.8c-4,1.8-8.7,2.8-14,2.8s-9.3-.8-13.3-2.4c-4.1-1.6-7.6-3.8-10.6-6.7-3-2.9-5.3-6.4-7-10.4-1.7-4.1-2.6-8.5-2.6-13.4s.9-9.5,2.6-13.6c1.7-4.1,4.1-7.5,7.2-10.3,3.1-2.8,6.6-5,10.7-6.6,4.1-1.5,8.5-2.3,13.3-2.3s8.7.8,13,2.3c4.3,1.6,7.7,3.8,10.3,6.8l-10.2,10.2c-1.4-1.9-3.3-3.4-5.5-4.3-2.3-.9-4.6-1.4-7-1.4s-5.1.5-7.3,1.5c-2.2,1-4.1,2.3-5.7,4-1.6,1.7-2.8,3.7-3.7,6-.9,2.3-1.3,4.9-1.3,7.6s.4,5.4,1.3,7.7c.9,2.3,2.1,4.4,3.7,6,1.6,1.7,3.4,3,5.6,3.9,2.2.9,4.5,1.4,7.1,1.4s5.6-.6,7.8-1.8c2.2-1.2,4-2.7,5.4-4.6l10.5,9.9c-2.8,3.2-6.2,5.7-10.2,7.5h0Z"/>
      <path class="cls-2" d="M473.2,250.5c0,4.9-.9,9.4-2.6,13.5-1.7,4.1-4.1,7.6-7.1,10.5-3,2.9-6.6,5.2-10.8,6.7-4.2,1.6-8.7,2.4-13.6,2.4s-9.4-.8-13.5-2.4c-4.1-1.6-7.7-3.8-10.7-6.7-3-2.9-5.4-6.4-7.1-10.5-1.7-4.1-2.6-8.6-2.6-13.5s.8-9.5,2.6-13.5c1.7-4,4.1-7.4,7.1-10.3,3-2.8,6.6-5,10.7-6.5,4.1-1.5,8.6-2.3,13.5-2.3s9.4.8,13.6,2.3c4.2,1.5,7.8,3.7,10.8,6.5,3,2.8,5.4,6.2,7.1,10.3,1.7,4,2.6,8.5,2.6,13.5h0ZM457.1,250.5c0-2.7-.4-5.2-1.3-7.6-.9-2.3-2.1-4.4-3.7-6-1.6-1.7-3.4-3-5.6-4s-4.6-1.5-7.3-1.5-5,.5-7.2,1.5c-2.2,1-4,2.3-5.6,4-1.6,1.7-2.8,3.7-3.7,6-.9,2.3-1.3,4.9-1.3,7.6s.4,5.4,1.3,7.8c.9,2.4,2.1,4.4,3.7,6.1,1.6,1.7,3.4,3,5.6,4,2.2,1,4.6,1.5,7.2,1.5s5-.5,7.2-1.5c2.2-1,4.1-2.3,5.6-4,1.6-1.7,2.8-3.7,3.7-6.1.9-2.4,1.3-5,1.3-7.8h0Z"/>
      <path class="cls-2" d="M516.5,281.9l-13.5-24.7h-5.1v24.7h-14.7v-62.3h23.8c3,0,5.9.3,8.8.9,2.8.6,5.4,1.7,7.7,3.1,2.3,1.5,4.1,3.4,5.4,5.8,1.3,2.4,2,5.4,2,9s-1.1,7.8-3.4,10.7c-2.3,2.9-5.5,4.9-9.5,6.2l16.3,26.7h-17.6ZM515.9,238.7c0-1.5-.3-2.7-.9-3.6-.6-.9-1.4-1.6-2.4-2.1-1-.5-2.1-.8-3.3-1-1.2-.2-2.4-.3-3.5-.3h-8v14.5h7.2c1.2,0,2.5-.1,3.8-.3,1.3-.2,2.5-.6,3.5-1.1,1.1-.5,1.9-1.3,2.6-2.3.7-1,1-2.3,1-3.9h0Z"/>
    </g>
  </g>
</svg>