<?xml version="1.0" encoding="UTF-8"?>
<svg id="Layer_2" data-name="Layer 2" xmlns="http://www.w3.org/2000/svg" version="1.1" viewBox="0 0 467.6 467.6">
  <defs>
    <style>
      .cls-1 {
        fill: #b2b2b2;
      }

      .cls-1, .cls-2 {
        stroke-width: 0px;
      }

      .cls-2 {
        fill: #304148;
      }
    </style>
  </defs>
  <g id="Components">
    <g id="_85e7917b-6bea-4e20-b8f7-f5836792d698_1" data-name=" 85e7917b-6bea-4e20-b8f7-f5836792d698 1">
      <circle class="cls-1" cx="295.1" cy="286.3" r="5.2"/>
      <circle class="cls-1" cx="170" cy="181.3" r="5.2"/>
      <circle class="cls-1" cx="270.2" cy="306.2" r="5.2"/>
      <circle class="cls-1" cx="194.8" cy="161.4" r="5.2"/>
      <circle class="cls-1" cx="239.6" cy="315.2" r="5.2"/>
      <circle class="cls-1" cx="225.4" cy="152.4" r="5.2"/>
      <circle class="cls-1" cx="208" cy="311.7" r="5.2"/>
      <circle class="cls-1" cx="257.1" cy="155.9" r="5.2"/>
      <circle class="cls-1" cx="180" cy="296.4" r="5.2"/>
      <circle class="cls-1" cx="285" cy="171.2" r="5.2"/>
      <circle class="cls-1" cx="170" cy="181.3" r="5.2"/>
      <circle class="cls-1" cx="295.1" cy="286.3" r="5.2"/>
      <circle class="cls-1" cx="293.6" cy="306.5" r="6"/>
      <circle class="cls-1" cx="171.5" cy="161" r="6"/>
      <circle class="cls-1" cx="261.1" cy="324.4" r="6"/>
      <circle class="cls-1" cx="204" cy="143.2" r="6"/>
      <circle class="cls-1" cx="224.2" cy="328.4" r="6"/>
      <circle class="cls-1" cx="240.8" cy="139.2" r="6"/>
      <circle class="cls-1" cx="188.7" cy="318" r="6" transform="translate(-155.5 453.3) rotate(-80.8)"/>
      <circle class="cls-1" cx="276.4" cy="149.6" r="6"/>
      <circle class="cls-1" cx="159.8" cy="294.8" r="6"/>
      <circle class="cls-1" cx="305.3" cy="172.8" r="6"/>
      <circle class="cls-1" cx="171.5" cy="161" r="6"/>
      <circle class="cls-1" cx="293.6" cy="306.5" r="6"/>
      <circle class="cls-1" cx="287.7" cy="329.4" r="7"/>
      <circle class="cls-1" cx="177.3" cy="138.2" r="7"/>
      <circle class="cls-1" cx="246.9" cy="343.3" r="7"/>
      <circle class="cls-1" cx="218.1" cy="124.3" r="7"/>
      <circle class="cls-1" cx="203.9" cy="340.5" r="7"/>
      <circle class="cls-1" cx="261.1" cy="127.1" r="7"/>
      <circle class="cls-1" cx="165.3" cy="321.4" r="7"/>
      <circle class="cls-1" cx="299.7" cy="146.2" r="7"/>
      <circle class="cls-1" cx="136.9" cy="289" r="7"/>
      <circle class="cls-1" cx="328.1" cy="178.6" r="7"/>
      <circle class="cls-1" cx="144.9" cy="166.6" r="7"/>
      <circle class="cls-1" cx="320.1" cy="301" r="7"/>
      <circle class="cls-1" cx="177.3" cy="138.2" r="7"/>
      <circle class="cls-1" cx="287.7" cy="329.4" r="7"/>
      <circle class="cls-1" cx="276.4" cy="354.4" r="8.1"/>
      <circle class="cls-1" cx="188.6" cy="113.1" r="8.1" transform="translate(46.7 281.2) rotate(-80.8)"/>
      <circle class="cls-1" cx="226.9" cy="362.1" r="8.1"/>
      <circle class="cls-1" cx="238.1" cy="105.5" r="8.1"/>
      <circle class="cls-1" cx="178.3" cy="350.2" r="8.1"/>
      <circle class="cls-1" cx="286.8" cy="117.4" r="8.1"/>
      <circle class="cls-1" cx="137.9" cy="320.5" r="8.1"/>
      <circle class="cls-1" cx="327.2" cy="147" r="8.1"/>
      <circle class="cls-1" cx="116.1" cy="179.5" r="8.1"/>
      <circle class="cls-1" cx="348.9" cy="288.1" r="8.1"/>
      <circle class="cls-1" cx="145.8" cy="139.1" r="8.1"/>
      <circle class="cls-1" cx="319.3" cy="328.5" r="8.1"/>
      <circle class="cls-1" cx="188.6" cy="113.1" r="8.1" transform="translate(46.7 281.2) rotate(-80.8)"/>
      <circle class="cls-1" cx="276.4" cy="354.4" r="8.1"/>
      <circle class="cls-1" cx="258.4" cy="380.8" r="9.5"/>
      <circle class="cls-1" cx="206.6" cy="86.8" r="9.5"/>
      <circle class="cls-1" cx="200.2" cy="379.6" r="9.5"/>
      <circle class="cls-1" cx="264.8" cy="88" r="9.5"/>
      <circle class="cls-1" cx="146.9" cy="356.1" r="9.5"/>
      <circle class="cls-1" cx="318.2" cy="111.5" r="9.5"/>
      <circle class="cls-1" cx="106.6" cy="314" r="9.5"/>
      <circle class="cls-1" cx="358.4" cy="153.6" r="9.5"/>
      <circle class="cls-1" cx="110.2" cy="148.2" r="9.5"/>
      <circle class="cls-1" cx="354.8" cy="319.4" r="9.5"/>
      <circle class="cls-1" cx="152.3" cy="107.9" r="9.5"/>
      <circle class="cls-1" cx="312.7" cy="359.7" r="9.5"/>
      <circle class="cls-1" cx="206.6" cy="86.8" r="9.5"/>
      <circle class="cls-1" cx="258.4" cy="380.8" r="9.5"/>
      <circle class="cls-1" cx="232.5" cy="407.4" r="11"/>
      <path class="cls-1" d="M221.5,60.2c0-6.1,4.9-11,11-11s11,4.9,11,11-4.9,11-11,11-11-4.9-11-11Z"/>
      <circle class="cls-1" cx="166.1" cy="394.2" r="11"/>
      <circle class="cls-1" cx="299" cy="73.4" r="11"/>
      <circle class="cls-1" cx="109.8" cy="356.6" r="11"/>
      <circle class="cls-1" cx="355.3" cy="111" r="11"/>
      <circle class="cls-1" cx="72.1" cy="300.2" r="11"/>
      <circle class="cls-1" cx="392.9" cy="167.4" r="11"/>
      <circle class="cls-1" cx="72.1" cy="167.4" r="11"/>
      <circle class="cls-1" cx="392.9" cy="300.2" r="11"/>
      <circle class="cls-1" cx="109.8" cy="111" r="11"/>
      <circle class="cls-1" cx="355.3" cy="356.6" r="11"/>
      <circle class="cls-1" cx="166.1" cy="73.4" r="11"/>
      <circle class="cls-1" cx="299" cy="394.2" r="11"/>
      <circle class="cls-1" cx="232.5" cy="60.2" r="11"/>
      <circle class="cls-1" cx="232.5" cy="407.4" r="11"/>
      <path class="cls-2" d="M47.5,263.9c-4,1.8-8.7,2.8-14,2.8s-9.3-.8-13.3-2.4c-4.1-1.6-7.6-3.8-10.6-6.7-3-2.9-5.3-6.4-7-10.4-1.7-4.1-2.6-8.5-2.6-13.4s.9-9.5,2.6-13.6c1.7-4.1,4.1-7.5,7.2-10.3,3.1-2.8,6.6-5,10.7-6.6,4.1-1.5,8.5-2.3,13.3-2.3s8.7.8,13,2.3c4.3,1.6,7.7,3.8,10.3,6.8l-10.2,10.2c-1.4-1.9-3.3-3.4-5.5-4.3-2.3-.9-4.6-1.4-7-1.4s-5.1.5-7.3,1.5c-2.2,1-4.1,2.3-5.7,4-1.6,1.7-2.8,3.7-3.7,6-.9,2.3-1.3,4.9-1.3,7.6s.4,5.4,1.3,7.7c.9,2.3,2.1,4.4,3.7,6,1.6,1.7,3.4,3,5.6,3.9,2.2.9,4.5,1.4,7.1,1.4s5.6-.6,7.8-1.8c2.2-1.2,4-2.7,5.4-4.6l10.5,9.9c-2.8,3.2-6.2,5.7-10.2,7.5h0Z"/>
      <path class="cls-2" d="M64.2,265v-62.3h41.9v12.7h-27.4v11.8h25.9v12.1h-25.9v12.9h29v12.9h-43.5,0Z"/>
      <path class="cls-2" d="M151,265l-13.5-24.7h-5.1v24.7h-14.7v-62.3h23.8c3,0,5.9.3,8.8.9,2.8.6,5.4,1.7,7.7,3.1,2.3,1.5,4.1,3.4,5.4,5.8,1.3,2.4,2,5.4,2,9s-1.1,7.8-3.4,10.7c-2.3,2.9-5.5,4.9-9.5,6.2l16.3,26.7h-17.6,0ZM150.4,221.7c0-1.5-.3-2.7-.9-3.6-.6-.9-1.4-1.6-2.4-2.1-1-.5-2.1-.8-3.3-1-1.2-.2-2.4-.3-3.5-.3h-8v14.5h7.2c1.2,0,2.5-.1,3.8-.3,1.3-.2,2.5-.6,3.5-1.1,1.1-.5,1.9-1.3,2.6-2.3.7-1,1-2.3,1-3.9h0Z"/>
      <path class="cls-2" d="M176,265v-62.3h41.9v12.7h-27.4v11.8h25.9v12.1h-25.9v12.9h29v12.9h-43.5,0Z"/>
      <path class="cls-2" d="M262.4,218.8c-1.3-1.6-3-2.9-5.1-3.9s-4.1-1.5-6-1.5-2,0-3,.3c-1,.2-2,.5-2.8,1-.8.5-1.5,1.1-2.1,1.9-.6.8-.8,1.8-.8,3s.2,1.9.7,2.6c.4.7,1.1,1.3,1.9,1.8.8.5,1.9,1,3,1.5,1.2.4,2.5.9,4,1.4,2.1.7,4.3,1.5,6.6,2.3,2.3.9,4.4,2,6.3,3.4,1.9,1.4,3.4,3.2,4.7,5.2,1.2,2.1,1.8,4.7,1.8,7.8s-.7,6.7-2,9.3c-1.3,2.6-3.1,4.8-5.3,6.5-2.2,1.7-4.8,3-7.7,3.8-2.9.8-5.8,1.2-8.9,1.2-4.5,0-8.8-.8-12.9-2.3-4.2-1.6-7.6-3.8-10.4-6.6l9.9-10c1.5,1.9,3.5,3.4,6,4.7,2.5,1.3,5,1.9,7.4,1.9s2.2-.1,3.3-.4c1.1-.2,2-.6,2.8-1.1.8-.5,1.4-1.2,1.9-2.1.5-.9.7-1.9.7-3.2s-.3-2.2-.9-3c-.6-.8-1.4-1.6-2.5-2.2-1.1-.7-2.4-1.3-4-1.8-1.6-.6-3.4-1.2-5.5-1.8-2-.6-3.9-1.4-5.9-2.3-1.9-.9-3.6-2-5.1-3.4-1.5-1.4-2.7-3.1-3.6-5-.9-2-1.4-4.4-1.4-7.2s.7-6.4,2.1-8.9c1.4-2.5,3.3-4.5,5.5-6.1,2.3-1.6,4.9-2.7,7.7-3.5,2.9-.7,5.8-1.1,8.7-1.1s7.1.6,10.8,1.9c3.7,1.3,6.9,3.2,9.6,5.7l-9.6,10.1h0Z"/>
      <path class="cls-2" d="M326.1,263.9c-4,1.8-8.7,2.8-14,2.8s-9.3-.8-13.3-2.4c-4.1-1.6-7.6-3.8-10.6-6.7-3-2.9-5.3-6.4-7-10.4-1.7-4.1-2.6-8.5-2.6-13.4s.9-9.5,2.6-13.6c1.7-4.1,4.1-7.5,7.2-10.3,3.1-2.8,6.6-5,10.7-6.6,4.1-1.5,8.5-2.3,13.3-2.3s8.7.8,13,2.3c4.3,1.6,7.7,3.8,10.3,6.8l-10.2,10.2c-1.4-1.9-3.3-3.4-5.5-4.3-2.3-.9-4.6-1.4-7-1.4s-5.1.5-7.3,1.5c-2.2,1-4.1,2.3-5.7,4-1.6,1.7-2.8,3.7-3.7,6-.9,2.3-1.3,4.9-1.3,7.6s.4,5.4,1.3,7.7c.9,2.3,2.1,4.4,3.7,6,1.6,1.7,3.4,3,5.6,3.9,2.2.9,4.5,1.4,7.1,1.4s5.6-.6,7.8-1.8c2.2-1.2,4-2.7,5.4-4.6l10.5,9.9c-2.8,3.2-6.2,5.7-10.2,7.5h0Z"/>
      <path class="cls-2" d="M406.7,233.5c0,4.9-.9,9.4-2.6,13.5-1.7,4.1-4.1,7.6-7.1,10.5-3,2.9-6.6,5.2-10.8,6.7-4.2,1.6-8.7,2.4-13.6,2.4s-9.4-.8-13.5-2.4c-4.1-1.6-7.7-3.8-10.7-6.7-3-2.9-5.4-6.4-7.1-10.5-1.7-4.1-2.6-8.6-2.6-13.5s.8-9.5,2.6-13.5c1.7-4,4.1-7.4,7.1-10.3,3-2.8,6.6-5,10.7-6.5,4.1-1.5,8.6-2.3,13.5-2.3s9.4.8,13.6,2.3c4.2,1.5,7.8,3.7,10.8,6.5,3,2.8,5.4,6.2,7.1,10.3,1.7,4,2.6,8.5,2.6,13.5h0ZM390.6,233.5c0-2.7-.4-5.2-1.3-7.6-.9-2.3-2.1-4.4-3.7-6-1.6-1.7-3.4-3-5.6-4s-4.6-1.5-7.3-1.5-5,.5-7.2,1.5c-2.2,1-4,2.3-5.6,4-1.6,1.7-2.8,3.7-3.7,6-.9,2.3-1.3,4.9-1.3,7.6s.4,5.4,1.3,7.8c.9,2.4,2.1,4.4,3.7,6.1,1.6,1.7,3.4,3,5.6,4,2.2,1,4.6,1.5,7.2,1.5s5-.5,7.2-1.5c2.2-1,4.1-2.3,5.6-4,1.6-1.7,2.8-3.7,3.7-6.1.9-2.4,1.3-5,1.3-7.8h0Z"/>
      <path class="cls-2" d="M450,265l-13.5-24.7h-5.1v24.7h-14.7v-62.3h23.8c3,0,5.9.3,8.8.9,2.8.6,5.4,1.7,7.7,3.1,2.3,1.5,4.1,3.4,5.4,5.8,1.3,2.4,2,5.4,2,9s-1.1,7.8-3.4,10.7c-2.3,2.9-5.5,4.9-9.5,6.2l16.3,26.7h-17.6ZM449.4,221.7c0-1.5-.3-2.7-.9-3.6-.6-.9-1.4-1.6-2.4-2.1-1-.5-2.1-.8-3.3-1-1.2-.2-2.4-.3-3.5-.3h-8v14.5h7.2c1.2,0,2.5-.1,3.8-.3,1.3-.2,2.5-.6,3.5-1.1,1.1-.5,1.9-1.3,2.6-2.3.7-1,1-2.3,1-3.9h0Z"/>
    </g>
  </g>
</svg>