<?xml version="1.0" encoding="UTF-8"?>
<svg id="Layer_1" data-name="Layer 1" xmlns="http://www.w3.org/2000/svg" version="1.1" viewBox="0 0 127.5 127.5">
  <defs>
    <style>
      .cls-1 {
        fill: #b2b2b2;
        stroke-width: 0px;
      }
    </style>
  </defs>
  <g id="post-linkedin">
    <path class="cls-1" d="M114.8,0H12.8C5.7,0,0,5.7,0,12.8v102c0,7,5.7,12.8,12.8,12.8h102c7,0,12.8-5.7,12.8-12.8V12.8c0-7-5.7-12.8-12.8-12.8ZM38.2,108.4h-19.1v-57.4h19.1v57.4ZM28.7,40.2c-6.4,0-11.5-5.1-11.5-11.5s5.1-11.5,11.5-11.5,11.5,5.1,11.5,11.5-5.1,11.5-11.5,11.5ZM108.4,108.4h-19.1v-33.8c0-5.1-4.5-9.6-9.6-9.6s-9.6,4.5-9.6,9.6v33.8h-19.1v-57.4h19.1v7.7c3.2-5.1,10.2-8.9,15.9-8.9,12.1,0,22.3,10.2,22.3,22.3v36.3Z"/>
  </g>
</svg>