<?xml version="1.0" encoding="UTF-8"?>
<svg id="Layer_1" data-name="Layer 1" xmlns="http://www.w3.org/2000/svg" version="1.1" viewBox="0 0 437 176.5">
  <defs>
    <style>
      .cls-1 {
        fill: #b2b2b2;
        stroke-width: 0px;
      }
    </style>
  </defs>
  <g id="Components">
    <g id="_85e7917b-6bea-4e20-b8f7-f5836792d698_1" data-name=" 85e7917b-6bea-4e20-b8f7-f5836792d698 1">
      <circle class="cls-1" cx="138.7" cy="168.4" r="6.6"/>
      <circle class="cls-1" cx="170.4" cy="143" r="6.6"/>
      <circle class="cls-1" cx="209.4" cy="131.6" r="6.6"/>
      <circle class="cls-1" cx="249.8" cy="136" r="6.6"/>
      <circle class="cls-1" cx="285.4" cy="155.6" r="6.6"/>
      <circle class="cls-1" cx="138.7" cy="168.4" r="6.6"/>
      <circle class="cls-1" cx="140.7" cy="142.6" r="7.7"/>
      <circle class="cls-1" cx="182.1" cy="119.9" r="7.7"/>
      <circle class="cls-1" cx="229" cy="114.7" r="7.7"/>
      <circle class="cls-1" cx="274.4" cy="128" r="7.7"/>
      <circle class="cls-1" cx="311.2" cy="157.5" r="7.7"/>
      <circle class="cls-1" cx="140.7" cy="142.6" r="7.7"/>
      <circle class="cls-1" cx="148.1" cy="113.4" r="8.9"/>
      <circle class="cls-1" cx="200.1" cy="95.8" r="8.9"/>
      <circle class="cls-1" cx="254.9" cy="99.4" r="8.9"/>
      <circle class="cls-1" cx="304.2" cy="123.7" r="8.9"/>
      <circle class="cls-1" cx="340.4" cy="165" r="8.9"/>
      <circle class="cls-1" cx="106.8" cy="149.6" r="8.9"/>
      <circle class="cls-1" cx="148.1" cy="113.4" r="8.9"/>
      <circle class="cls-1" cx="162.5" cy="81.5" r="10.4" transform="translate(56 228.9) rotate(-80.8)"/>
      <circle class="cls-1" cx="225.6" cy="71.8" r="10.4"/>
      <circle class="cls-1" cx="287.7" cy="87" r="10.4"/>
      <circle class="cls-1" cx="339.2" cy="124.8" r="10.4"/>
      <circle class="cls-1" cx="70.2" cy="166.2" r="10.4"/>
      <circle class="cls-1" cx="107.9" cy="114.7" r="10.4"/>
      <circle class="cls-1" cx="162.5" cy="81.5" r="10.4" transform="translate(56 228.9) rotate(-80.8)"/>
      <circle class="cls-1" cx="185.4" cy="47.9" r="12.1"/>
      <circle class="cls-1" cx="259.7" cy="49.5" r="12.1"/>
      <circle class="cls-1" cx="327.6" cy="79.4" r="12.1"/>
      <circle class="cls-1" cx="379" cy="133.1" r="12.1"/>
      <circle class="cls-1" cx="62.6" cy="126.2" r="12.1"/>
      <circle class="cls-1" cx="116.2" cy="74.8" r="12.1"/>
      <circle class="cls-1" cx="185.4" cy="47.9" r="12.1"/>
      <path class="cls-1" d="M204.4,14c0-7.8,6.3-14,14-14s14,6.3,14,14-6.3,14-14,14-14-6.3-14-14Z"/>
      <circle class="cls-1" cx="303.2" cy="30.9" r="14"/>
      <circle class="cls-1" cx="375" cy="78.9" r="14"/>
      <circle class="cls-1" cx="422.9" cy="150.6" r="14"/>
      <circle class="cls-1" cx="14" cy="150.6" r="14"/>
      <circle class="cls-1" cx="62" cy="78.9" r="14"/>
      <circle class="cls-1" cx="133.8" cy="30.9" r="14"/>
      <circle class="cls-1" cx="218.5" cy="14" r="14"/>
    </g>
  </g>
</svg>